<mxfile host="Electron" modified="2023-05-17T14:19:47.066Z" agent="Mozilla/5.0 (Macintosh; Intel Mac OS X 10_15_7) AppleWebKit/537.36 (KHTML, like Gecko) draw.io/21.2.8 Chrome/112.0.5615.165 Electron/24.2.0 Safari/537.36" etag="QlSP2H8GVCC809jQLNzx" version="21.2.8" type="device" pages="5">
  <diagram name="第 1 页" id="zL-l8Q4GqmDF0lil7dZo">
    <mxGraphModel dx="765" dy="616" grid="0" gridSize="10" guides="1" tooltips="1" connect="1" arrows="1" fold="1" page="1" pageScale="1" pageWidth="827" pageHeight="1169" math="0" shadow="0">
      <root>
        <mxCell id="0" />
        <mxCell id="1" parent="0" />
        <mxCell id="jxEJ8ojPrpYW3quMHkCR-6" value="" style="edgeStyle=orthogonalEdgeStyle;rounded=1;orthogonalLoop=1;jettySize=auto;html=1;fontSize=14;fontFamily=Helvetica;strokeWidth=2;" parent="1" source="jxEJ8ojPrpYW3quMHkCR-4" target="jxEJ8ojPrpYW3quMHkCR-5" edge="1">
          <mxGeometry relative="1" as="geometry" />
        </mxCell>
        <mxCell id="jxEJ8ojPrpYW3quMHkCR-8" value="ParDo(ExpandPrefixes)" style="edgeLabel;html=1;align=center;verticalAlign=middle;resizable=0;points=[];fontSize=14;fontFamily=Helvetica;" parent="jxEJ8ojPrpYW3quMHkCR-6" vertex="1" connectable="0">
          <mxGeometry x="-0.125" y="-1" relative="1" as="geometry">
            <mxPoint x="6" as="offset" />
          </mxGeometry>
        </mxCell>
        <mxCell id="jxEJ8ojPrpYW3quMHkCR-4" value="(fix,1),(fit,2)" style="text;html=1;strokeColor=none;fillColor=none;align=center;verticalAlign=middle;whiteSpace=wrap;rounded=0;fontSize=14;fontFamily=Helvetica;" parent="1" vertex="1">
          <mxGeometry x="450" y="230" width="110" height="30" as="geometry" />
        </mxCell>
        <mxCell id="jxEJ8ojPrpYW3quMHkCR-5" value="(f,1),(fi,1),(fix,1),(f,2),(fi,2),(fit,2)" style="text;html=1;strokeColor=none;fillColor=none;align=center;verticalAlign=middle;whiteSpace=wrap;rounded=0;fontSize=14;fontFamily=Helvetica;" parent="1" vertex="1">
          <mxGeometry x="397.5" y="322" width="215" height="30" as="geometry" />
        </mxCell>
      </root>
    </mxGraphModel>
  </diagram>
  <diagram id="0tAyMncx_0z6eydEKQWU" name="第 2 页">
    <mxGraphModel dx="765" dy="616" grid="0" gridSize="10" guides="1" tooltips="1" connect="1" arrows="1" fold="1" page="1" pageScale="1" pageWidth="827" pageHeight="1169" background="none" math="0" shadow="0">
      <root>
        <mxCell id="0" />
        <mxCell id="1" parent="0" />
        <mxCell id="FRc-vFhFCXHIBEWiaUZW-9" value="" style="edgeStyle=orthogonalEdgeStyle;rounded=1;orthogonalLoop=1;jettySize=auto;html=1;fontSize=14;fontFamily=Helvetica;strokeWidth=2;" edge="1" parent="1" source="FRc-vFhFCXHIBEWiaUZW-11" target="FRc-vFhFCXHIBEWiaUZW-13">
          <mxGeometry relative="1" as="geometry">
            <mxPoint x="515" y="350" as="targetPoint" />
          </mxGeometry>
        </mxCell>
        <mxCell id="FRc-vFhFCXHIBEWiaUZW-10" value="GroupByKey" style="edgeLabel;html=1;align=center;verticalAlign=middle;resizable=0;points=[];fontSize=14;fontFamily=Helvetica;" vertex="1" connectable="0" parent="FRc-vFhFCXHIBEWiaUZW-9">
          <mxGeometry x="-0.125" y="-1" relative="1" as="geometry">
            <mxPoint x="6" as="offset" />
          </mxGeometry>
        </mxCell>
        <mxCell id="FRc-vFhFCXHIBEWiaUZW-11" value="(f,1),(fi,1),(fix,1),(f,2),(fi,2),(fit,2)" style="text;html=1;strokeColor=none;fillColor=none;align=center;verticalAlign=middle;whiteSpace=wrap;rounded=0;spacingTop=1;spacing=0;spacingLeft=0;fontSize=14;" vertex="1" parent="1">
          <mxGeometry x="410" y="240" width="210" height="30" as="geometry" />
        </mxCell>
        <mxCell id="FRc-vFhFCXHIBEWiaUZW-13" value="(f,[1,2]), (fi,[1,2]), (fix,1), (fit,2))" style="text;html=1;align=center;verticalAlign=middle;resizable=0;points=[];autosize=1;strokeColor=none;fillColor=none;fontSize=14;" vertex="1" parent="1">
          <mxGeometry x="412.5" y="332" width="205" height="29" as="geometry" />
        </mxCell>
      </root>
    </mxGraphModel>
  </diagram>
  <diagram id="T_iJ2lCVQd04KMRvnu9S" name="第 3 页">
    <mxGraphModel dx="-62" dy="616" grid="0" gridSize="10" guides="1" tooltips="1" connect="1" arrows="1" fold="1" page="1" pageScale="1" pageWidth="827" pageHeight="1169" math="0" shadow="0">
      <root>
        <mxCell id="0" />
        <mxCell id="1" parent="0" />
        <mxCell id="SgbwTgOA3a8xNyzi9-FQ-3" value="" style="edgeStyle=orthogonalEdgeStyle;rounded=0;orthogonalLoop=1;jettySize=auto;html=1;fontSize=13;strokeWidth=2;" edge="1" parent="1" source="SgbwTgOA3a8xNyzi9-FQ-1" target="SgbwTgOA3a8xNyzi9-FQ-2">
          <mxGeometry relative="1" as="geometry" />
        </mxCell>
        <mxCell id="SgbwTgOA3a8xNyzi9-FQ-4" value="AssignWindows( Sliding ( 2m, 1m ) )" style="edgeLabel;html=1;align=center;verticalAlign=middle;resizable=0;points=[];fontSize=13;" vertex="1" connectable="0" parent="SgbwTgOA3a8xNyzi9-FQ-3">
          <mxGeometry x="-0.0875" y="1" relative="1" as="geometry">
            <mxPoint x="9" y="-1" as="offset" />
          </mxGeometry>
        </mxCell>
        <mxCell id="SgbwTgOA3a8xNyzi9-FQ-1" value="( k1,v1,12:00 ) , ( k1.v2,12:01&amp;nbsp;)" style="text;html=1;align=center;verticalAlign=middle;resizable=0;points=[];autosize=1;fontSize=13;" vertex="1" parent="1">
          <mxGeometry x="983" y="130" width="195" height="28" as="geometry" />
        </mxCell>
        <mxCell id="SgbwTgOA3a8xNyzi9-FQ-2" value="( k1,v1,12:00,&amp;nbsp; [11:59, 12:01) ), &lt;br style=&quot;font-size: 13px;&quot;&gt;( k1.v1,12:00,&amp;nbsp; [12:00, 12:02) ),&lt;br style=&quot;font-size: 13px;&quot;&gt;( k1.v2,12:01,&amp;nbsp; [12:00, 12:02) ),&lt;br style=&quot;font-size: 13px;&quot;&gt;( k1.v2,12:01,&amp;nbsp; [12:01, 12:03) )&amp;nbsp;" style="text;html=1;align=center;verticalAlign=middle;resizable=0;points=[];autosize=1;fontSize=13;" vertex="1" parent="1">
          <mxGeometry x="983" y="221" width="196" height="74" as="geometry" />
        </mxCell>
      </root>
    </mxGraphModel>
  </diagram>
  <diagram id="vFyIkRWaMnm97ZEyWOez" name="第 4 页">
    <mxGraphModel dx="-98" dy="587" grid="0" gridSize="10" guides="1" tooltips="1" connect="1" arrows="1" fold="1" page="1" pageScale="1" pageWidth="827" pageHeight="1169" math="0" shadow="0">
      <root>
        <mxCell id="0" />
        <mxCell id="1" parent="0" />
        <mxCell id="67Q7puQWkrucqAfG7P_P-71" value="" style="rounded=0;whiteSpace=wrap;html=1;fontSize=13;" vertex="1" parent="1">
          <mxGeometry x="931" y="321" width="138" height="72" as="geometry" />
        </mxCell>
        <mxCell id="67Q7puQWkrucqAfG7P_P-2" value="k1" style="rounded=0;whiteSpace=wrap;html=1;fontSize=13;" vertex="1" parent="1">
          <mxGeometry x="931" y="171" width="32" height="20" as="geometry" />
        </mxCell>
        <mxCell id="67Q7puQWkrucqAfG7P_P-4" value="v1" style="rounded=0;whiteSpace=wrap;html=1;fontSize=13;" vertex="1" parent="1">
          <mxGeometry x="963" y="171" width="32" height="20" as="geometry" />
        </mxCell>
        <mxCell id="67Q7puQWkrucqAfG7P_P-5" value="13:02" style="rounded=0;whiteSpace=wrap;html=1;fontSize=13;" vertex="1" parent="1">
          <mxGeometry x="995" y="171" width="42" height="20" as="geometry" />
        </mxCell>
        <mxCell id="67Q7puQWkrucqAfG7P_P-6" value="k2" style="rounded=0;whiteSpace=wrap;html=1;fontSize=13;" vertex="1" parent="1">
          <mxGeometry x="931" y="196" width="32" height="20" as="geometry" />
        </mxCell>
        <mxCell id="67Q7puQWkrucqAfG7P_P-7" value="v2" style="rounded=0;whiteSpace=wrap;html=1;fontSize=13;" vertex="1" parent="1">
          <mxGeometry x="963" y="196" width="32" height="20" as="geometry" />
        </mxCell>
        <mxCell id="67Q7puQWkrucqAfG7P_P-8" value="13:14" style="rounded=0;whiteSpace=wrap;html=1;fontSize=13;" vertex="1" parent="1">
          <mxGeometry x="995" y="196" width="42" height="20" as="geometry" />
        </mxCell>
        <mxCell id="67Q7puQWkrucqAfG7P_P-9" value="k1" style="rounded=0;whiteSpace=wrap;html=1;fontSize=13;" vertex="1" parent="1">
          <mxGeometry x="931" y="221" width="32" height="20" as="geometry" />
        </mxCell>
        <mxCell id="67Q7puQWkrucqAfG7P_P-10" value="v3" style="rounded=0;whiteSpace=wrap;html=1;fontSize=13;" vertex="1" parent="1">
          <mxGeometry x="963" y="221" width="32" height="20" as="geometry" />
        </mxCell>
        <mxCell id="67Q7puQWkrucqAfG7P_P-11" value="13:57" style="rounded=0;whiteSpace=wrap;html=1;fontSize=13;" vertex="1" parent="1">
          <mxGeometry x="995" y="221" width="42" height="20" as="geometry" />
        </mxCell>
        <mxCell id="67Q7puQWkrucqAfG7P_P-12" value="k1" style="rounded=0;whiteSpace=wrap;html=1;fontSize=13;" vertex="1" parent="1">
          <mxGeometry x="931" y="246" width="32" height="20" as="geometry" />
        </mxCell>
        <mxCell id="67Q7puQWkrucqAfG7P_P-13" value="v4" style="rounded=0;whiteSpace=wrap;html=1;fontSize=13;" vertex="1" parent="1">
          <mxGeometry x="963" y="246" width="32" height="20" as="geometry" />
        </mxCell>
        <mxCell id="67Q7puQWkrucqAfG7P_P-14" value="13:20" style="rounded=0;whiteSpace=wrap;html=1;fontSize=13;" vertex="1" parent="1">
          <mxGeometry x="995" y="246" width="42" height="20" as="geometry" />
        </mxCell>
        <mxCell id="67Q7puQWkrucqAfG7P_P-16" value="" style="endArrow=classic;html=1;rounded=0;fontSize=13;" edge="1" parent="1">
          <mxGeometry width="50" height="50" relative="1" as="geometry">
            <mxPoint x="1102.75" y="231" as="sourcePoint" />
            <mxPoint x="1137.25" y="231" as="targetPoint" />
          </mxGeometry>
        </mxCell>
        <mxCell id="67Q7puQWkrucqAfG7P_P-17" value="AssignWindow&lt;br style=&quot;font-size: 13px;&quot;&gt;( Session 30m )" style="text;html=1;align=center;verticalAlign=middle;resizable=0;points=[];autosize=1;fontSize=13;" vertex="1" parent="1">
          <mxGeometry x="1066" y="177" width="109" height="43" as="geometry" />
        </mxCell>
        <mxCell id="67Q7puQWkrucqAfG7P_P-18" value="k1" style="rounded=0;whiteSpace=wrap;html=1;fontSize=13;" vertex="1" parent="1">
          <mxGeometry x="1181" y="165" width="32" height="20" as="geometry" />
        </mxCell>
        <mxCell id="67Q7puQWkrucqAfG7P_P-19" value="v1" style="rounded=0;whiteSpace=wrap;html=1;fontSize=13;" vertex="1" parent="1">
          <mxGeometry x="1213" y="165" width="32" height="20" as="geometry" />
        </mxCell>
        <mxCell id="67Q7puQWkrucqAfG7P_P-20" value="13:02" style="rounded=0;whiteSpace=wrap;html=1;fontSize=13;" vertex="1" parent="1">
          <mxGeometry x="1245" y="165" width="42" height="20" as="geometry" />
        </mxCell>
        <mxCell id="67Q7puQWkrucqAfG7P_P-21" value="[13:02, 13:32)" style="rounded=0;whiteSpace=wrap;html=1;fontSize=13;fillColor=#d5e8d4;strokeColor=#82b366;" vertex="1" parent="1">
          <mxGeometry x="1285" y="165" width="92" height="20" as="geometry" />
        </mxCell>
        <mxCell id="67Q7puQWkrucqAfG7P_P-22" value="k2" style="rounded=0;whiteSpace=wrap;html=1;fontSize=13;" vertex="1" parent="1">
          <mxGeometry x="1181" y="190" width="32" height="20" as="geometry" />
        </mxCell>
        <mxCell id="67Q7puQWkrucqAfG7P_P-23" value="v2" style="rounded=0;whiteSpace=wrap;html=1;fontSize=13;" vertex="1" parent="1">
          <mxGeometry x="1213" y="190" width="32" height="20" as="geometry" />
        </mxCell>
        <mxCell id="67Q7puQWkrucqAfG7P_P-24" value="13:14" style="rounded=0;whiteSpace=wrap;html=1;fontSize=13;" vertex="1" parent="1">
          <mxGeometry x="1245" y="190" width="42" height="20" as="geometry" />
        </mxCell>
        <mxCell id="67Q7puQWkrucqAfG7P_P-25" value="[13:14, 13:44)" style="rounded=0;whiteSpace=wrap;html=1;fontSize=13;fillColor=#d5e8d4;strokeColor=#82b366;" vertex="1" parent="1">
          <mxGeometry x="1285" y="190" width="92" height="20" as="geometry" />
        </mxCell>
        <mxCell id="67Q7puQWkrucqAfG7P_P-26" value="k1" style="rounded=0;whiteSpace=wrap;html=1;fontSize=13;" vertex="1" parent="1">
          <mxGeometry x="1181" y="215" width="32" height="20" as="geometry" />
        </mxCell>
        <mxCell id="67Q7puQWkrucqAfG7P_P-27" value="v3" style="rounded=0;whiteSpace=wrap;html=1;fontSize=13;" vertex="1" parent="1">
          <mxGeometry x="1213" y="215" width="32" height="20" as="geometry" />
        </mxCell>
        <mxCell id="67Q7puQWkrucqAfG7P_P-28" value="13:57" style="rounded=0;whiteSpace=wrap;html=1;fontSize=13;" vertex="1" parent="1">
          <mxGeometry x="1245" y="215" width="42" height="20" as="geometry" />
        </mxCell>
        <mxCell id="67Q7puQWkrucqAfG7P_P-29" value="[13:57, 14:27)" style="rounded=0;whiteSpace=wrap;html=1;fontSize=13;fillColor=#d5e8d4;strokeColor=#82b366;" vertex="1" parent="1">
          <mxGeometry x="1285" y="215" width="92" height="20" as="geometry" />
        </mxCell>
        <mxCell id="67Q7puQWkrucqAfG7P_P-30" value="k1" style="rounded=0;whiteSpace=wrap;html=1;fontSize=13;" vertex="1" parent="1">
          <mxGeometry x="1181" y="240" width="32" height="20" as="geometry" />
        </mxCell>
        <mxCell id="67Q7puQWkrucqAfG7P_P-31" value="v4" style="rounded=0;whiteSpace=wrap;html=1;fontSize=13;" vertex="1" parent="1">
          <mxGeometry x="1213" y="240" width="32" height="20" as="geometry" />
        </mxCell>
        <mxCell id="67Q7puQWkrucqAfG7P_P-32" value="13:02" style="rounded=0;whiteSpace=wrap;html=1;fontSize=13;" vertex="1" parent="1">
          <mxGeometry x="1245" y="240" width="42" height="20" as="geometry" />
        </mxCell>
        <mxCell id="67Q7puQWkrucqAfG7P_P-33" value="[13:20, 13:50)" style="rounded=0;whiteSpace=wrap;html=1;fontSize=13;fillColor=#d5e8d4;strokeColor=#82b366;" vertex="1" parent="1">
          <mxGeometry x="1285" y="240" width="92" height="20" as="geometry" />
        </mxCell>
        <mxCell id="67Q7puQWkrucqAfG7P_P-34" value="" style="endArrow=classic;html=1;rounded=0;fontSize=13;" edge="1" parent="1">
          <mxGeometry width="50" height="50" relative="1" as="geometry">
            <mxPoint x="1284.05" y="273" as="sourcePoint" />
            <mxPoint x="1284.05" y="312" as="targetPoint" />
          </mxGeometry>
        </mxCell>
        <mxCell id="67Q7puQWkrucqAfG7P_P-68" value="DropTimestamps" style="edgeLabel;html=1;align=center;verticalAlign=middle;resizable=0;points=[];fontSize=13;" vertex="1" connectable="0" parent="67Q7puQWkrucqAfG7P_P-34">
          <mxGeometry x="-0.0893" y="-3" relative="1" as="geometry">
            <mxPoint x="-54" y="-2" as="offset" />
          </mxGeometry>
        </mxCell>
        <mxCell id="67Q7puQWkrucqAfG7P_P-36" value="k1" style="rounded=0;whiteSpace=wrap;html=1;fontSize=13;" vertex="1" parent="1">
          <mxGeometry x="1207" y="319" width="32" height="20" as="geometry" />
        </mxCell>
        <mxCell id="67Q7puQWkrucqAfG7P_P-37" value="v1" style="rounded=0;whiteSpace=wrap;html=1;fontSize=13;" vertex="1" parent="1">
          <mxGeometry x="1239" y="319" width="32" height="20" as="geometry" />
        </mxCell>
        <mxCell id="67Q7puQWkrucqAfG7P_P-39" value="[13:02, 13:32)" style="rounded=0;whiteSpace=wrap;html=1;fontSize=13;" vertex="1" parent="1">
          <mxGeometry x="1271" y="319" width="92" height="20" as="geometry" />
        </mxCell>
        <mxCell id="67Q7puQWkrucqAfG7P_P-40" value="k2" style="rounded=0;whiteSpace=wrap;html=1;fontSize=13;" vertex="1" parent="1">
          <mxGeometry x="1207" y="346" width="32" height="20" as="geometry" />
        </mxCell>
        <mxCell id="67Q7puQWkrucqAfG7P_P-41" value="v2" style="rounded=0;whiteSpace=wrap;html=1;fontSize=13;" vertex="1" parent="1">
          <mxGeometry x="1239" y="346" width="32" height="20" as="geometry" />
        </mxCell>
        <mxCell id="67Q7puQWkrucqAfG7P_P-43" value="[13:14, 13:44)" style="rounded=0;whiteSpace=wrap;html=1;fontSize=13;" vertex="1" parent="1">
          <mxGeometry x="1271" y="346" width="92" height="20" as="geometry" />
        </mxCell>
        <mxCell id="67Q7puQWkrucqAfG7P_P-44" value="k1" style="rounded=0;whiteSpace=wrap;html=1;fontSize=13;" vertex="1" parent="1">
          <mxGeometry x="1207" y="371" width="32" height="20" as="geometry" />
        </mxCell>
        <mxCell id="67Q7puQWkrucqAfG7P_P-45" value="v3" style="rounded=0;whiteSpace=wrap;html=1;fontSize=13;" vertex="1" parent="1">
          <mxGeometry x="1239" y="371" width="32" height="20" as="geometry" />
        </mxCell>
        <mxCell id="67Q7puQWkrucqAfG7P_P-47" value="[13:57, 14:27)" style="rounded=0;whiteSpace=wrap;html=1;fontSize=13;" vertex="1" parent="1">
          <mxGeometry x="1271" y="371" width="92" height="20" as="geometry" />
        </mxCell>
        <mxCell id="67Q7puQWkrucqAfG7P_P-48" value="k1" style="rounded=0;whiteSpace=wrap;html=1;fontSize=13;" vertex="1" parent="1">
          <mxGeometry x="1207" y="396" width="32" height="20" as="geometry" />
        </mxCell>
        <mxCell id="67Q7puQWkrucqAfG7P_P-49" value="v4" style="rounded=0;whiteSpace=wrap;html=1;fontSize=13;" vertex="1" parent="1">
          <mxGeometry x="1239" y="396" width="32" height="20" as="geometry" />
        </mxCell>
        <mxCell id="67Q7puQWkrucqAfG7P_P-51" value="[13:20, 13:50)" style="rounded=0;whiteSpace=wrap;html=1;fontSize=13;" vertex="1" parent="1">
          <mxGeometry x="1271" y="396" width="92" height="20" as="geometry" />
        </mxCell>
        <mxCell id="67Q7puQWkrucqAfG7P_P-54" value="" style="endArrow=classic;html=1;rounded=0;fontSize=13;" edge="1" parent="1">
          <mxGeometry width="50" height="50" relative="1" as="geometry">
            <mxPoint x="1150" y="375.5200000000001" as="sourcePoint" />
            <mxPoint x="1106" y="375.52" as="targetPoint" />
          </mxGeometry>
        </mxCell>
        <mxCell id="67Q7puQWkrucqAfG7P_P-55" value="GroupByKey" style="text;html=1;align=center;verticalAlign=middle;resizable=0;points=[];autosize=1;strokeColor=none;fillColor=none;fontSize=13;" vertex="1" parent="1">
          <mxGeometry x="1082" y="342" width="92" height="28" as="geometry" />
        </mxCell>
        <mxCell id="67Q7puQWkrucqAfG7P_P-57" value="v1" style="rounded=0;whiteSpace=wrap;html=1;fontSize=13;" vertex="1" parent="1">
          <mxGeometry x="938" y="326" width="32" height="20" as="geometry" />
        </mxCell>
        <mxCell id="67Q7puQWkrucqAfG7P_P-58" value="[13:02, 13:32)" style="rounded=0;whiteSpace=wrap;html=1;fontSize=13;" vertex="1" parent="1">
          <mxGeometry x="970" y="326" width="92" height="20" as="geometry" />
        </mxCell>
        <mxCell id="67Q7puQWkrucqAfG7P_P-59" value="k2" style="rounded=0;whiteSpace=wrap;html=1;fontSize=13;" vertex="1" parent="1">
          <mxGeometry x="899" y="401" width="32" height="20" as="geometry" />
        </mxCell>
        <mxCell id="67Q7puQWkrucqAfG7P_P-60" value="v2" style="rounded=0;whiteSpace=wrap;html=1;fontSize=13;" vertex="1" parent="1">
          <mxGeometry x="931" y="401" width="32" height="20" as="geometry" />
        </mxCell>
        <mxCell id="67Q7puQWkrucqAfG7P_P-61" value="[13:14, 13:44)" style="rounded=0;whiteSpace=wrap;html=1;fontSize=13;" vertex="1" parent="1">
          <mxGeometry x="963" y="401" width="92" height="20" as="geometry" />
        </mxCell>
        <mxCell id="67Q7puQWkrucqAfG7P_P-63" value="v3" style="rounded=0;whiteSpace=wrap;html=1;fontSize=13;" vertex="1" parent="1">
          <mxGeometry x="938" y="346" width="32" height="20" as="geometry" />
        </mxCell>
        <mxCell id="67Q7puQWkrucqAfG7P_P-64" value="[13:57, 14:27)" style="rounded=0;whiteSpace=wrap;html=1;fontSize=13;" vertex="1" parent="1">
          <mxGeometry x="970" y="346" width="92" height="20" as="geometry" />
        </mxCell>
        <mxCell id="67Q7puQWkrucqAfG7P_P-65" value="k1" style="rounded=0;whiteSpace=wrap;html=1;fontSize=13;" vertex="1" parent="1">
          <mxGeometry x="899" y="321" width="32" height="72" as="geometry" />
        </mxCell>
        <mxCell id="67Q7puQWkrucqAfG7P_P-66" value="v4" style="rounded=0;whiteSpace=wrap;html=1;fontSize=13;" vertex="1" parent="1">
          <mxGeometry x="938" y="366" width="32" height="20" as="geometry" />
        </mxCell>
        <mxCell id="67Q7puQWkrucqAfG7P_P-67" value="[13:20, 13:50)" style="rounded=0;whiteSpace=wrap;html=1;fontSize=13;" vertex="1" parent="1">
          <mxGeometry x="970" y="366" width="92" height="20" as="geometry" />
        </mxCell>
        <mxCell id="67Q7puQWkrucqAfG7P_P-72" value="" style="endArrow=classic;html=1;rounded=0;fontSize=13;" edge="1" parent="1">
          <mxGeometry width="50" height="50" relative="1" as="geometry">
            <mxPoint x="999.5200000000001" y="438" as="sourcePoint" />
            <mxPoint x="999.5200000000001" y="477" as="targetPoint" />
          </mxGeometry>
        </mxCell>
        <mxCell id="67Q7puQWkrucqAfG7P_P-73" value="MergeWindows" style="edgeLabel;html=1;align=center;verticalAlign=middle;resizable=0;points=[];fontSize=13;" vertex="1" connectable="0" parent="67Q7puQWkrucqAfG7P_P-72">
          <mxGeometry x="-0.0893" y="-3" relative="1" as="geometry">
            <mxPoint x="-54" y="-2" as="offset" />
          </mxGeometry>
        </mxCell>
        <mxCell id="67Q7puQWkrucqAfG7P_P-74" value="" style="rounded=0;whiteSpace=wrap;html=1;fontSize=13;" vertex="1" parent="1">
          <mxGeometry x="931" y="487" width="138" height="72" as="geometry" />
        </mxCell>
        <mxCell id="67Q7puQWkrucqAfG7P_P-75" value="v1" style="rounded=0;whiteSpace=wrap;html=1;fontSize=13;" vertex="1" parent="1">
          <mxGeometry x="938" y="492" width="32" height="20" as="geometry" />
        </mxCell>
        <mxCell id="67Q7puQWkrucqAfG7P_P-76" value="[13:02, 13:32)" style="rounded=0;whiteSpace=wrap;html=1;fontSize=13;fillColor=#dae8fc;strokeColor=#6c8ebf;" vertex="1" parent="1">
          <mxGeometry x="970" y="492" width="92" height="20" as="geometry" />
        </mxCell>
        <mxCell id="67Q7puQWkrucqAfG7P_P-77" value="k2" style="rounded=0;whiteSpace=wrap;html=1;fontSize=13;" vertex="1" parent="1">
          <mxGeometry x="899" y="567" width="32" height="20" as="geometry" />
        </mxCell>
        <mxCell id="67Q7puQWkrucqAfG7P_P-78" value="v2" style="rounded=0;whiteSpace=wrap;html=1;fontSize=13;" vertex="1" parent="1">
          <mxGeometry x="931" y="567" width="32" height="20" as="geometry" />
        </mxCell>
        <mxCell id="67Q7puQWkrucqAfG7P_P-79" value="[13:14, 13:44)" style="rounded=0;whiteSpace=wrap;html=1;fontSize=13;" vertex="1" parent="1">
          <mxGeometry x="963" y="567" width="92" height="20" as="geometry" />
        </mxCell>
        <mxCell id="67Q7puQWkrucqAfG7P_P-80" value="v3" style="rounded=0;whiteSpace=wrap;html=1;fontSize=13;" vertex="1" parent="1">
          <mxGeometry x="938" y="512" width="32" height="20" as="geometry" />
        </mxCell>
        <mxCell id="67Q7puQWkrucqAfG7P_P-81" value="[13:57, 14:27)" style="rounded=0;whiteSpace=wrap;html=1;fontSize=13;" vertex="1" parent="1">
          <mxGeometry x="970" y="512" width="92" height="20" as="geometry" />
        </mxCell>
        <mxCell id="67Q7puQWkrucqAfG7P_P-82" value="k1" style="rounded=0;whiteSpace=wrap;html=1;fontSize=13;" vertex="1" parent="1">
          <mxGeometry x="899" y="487" width="32" height="72" as="geometry" />
        </mxCell>
        <mxCell id="67Q7puQWkrucqAfG7P_P-83" value="v4" style="rounded=0;whiteSpace=wrap;html=1;fontSize=13;" vertex="1" parent="1">
          <mxGeometry x="938" y="532" width="32" height="20" as="geometry" />
        </mxCell>
        <mxCell id="67Q7puQWkrucqAfG7P_P-84" value="[13:20, 13:50)" style="rounded=0;whiteSpace=wrap;html=1;fontSize=13;fillColor=#dae8fc;strokeColor=#6c8ebf;" vertex="1" parent="1">
          <mxGeometry x="970" y="532" width="92" height="20" as="geometry" />
        </mxCell>
        <mxCell id="67Q7puQWkrucqAfG7P_P-86" value="" style="endArrow=classic;html=1;rounded=0;fontSize=13;" edge="1" parent="1">
          <mxGeometry width="50" height="50" relative="1" as="geometry">
            <mxPoint x="1110.75" y="541.52" as="sourcePoint" />
            <mxPoint x="1145.25" y="541.52" as="targetPoint" />
          </mxGeometry>
        </mxCell>
        <mxCell id="67Q7puQWkrucqAfG7P_P-87" value="GroupAlsoByWindows" style="edgeLabel;html=1;align=center;verticalAlign=middle;resizable=0;points=[];fontSize=13;" vertex="1" connectable="0" parent="67Q7puQWkrucqAfG7P_P-86">
          <mxGeometry x="-0.2062" relative="1" as="geometry">
            <mxPoint x="14" y="-24" as="offset" />
          </mxGeometry>
        </mxCell>
        <mxCell id="67Q7puQWkrucqAfG7P_P-88" value="" style="rounded=0;whiteSpace=wrap;html=1;fontSize=13;" vertex="1" parent="1">
          <mxGeometry x="1244" y="492" width="150" height="52" as="geometry" />
        </mxCell>
        <mxCell id="67Q7puQWkrucqAfG7P_P-89" value="&lt;b style=&quot;font-size: 13px;&quot;&gt;[v1,v4]&lt;/b&gt;" style="rounded=0;whiteSpace=wrap;html=1;fontSize=13;fillColor=#dae8fc;strokeColor=#6c8ebf;" vertex="1" parent="1">
          <mxGeometry x="1250" y="497" width="47" height="20" as="geometry" />
        </mxCell>
        <mxCell id="67Q7puQWkrucqAfG7P_P-90" value="[13:02, 13:50)" style="rounded=0;whiteSpace=wrap;html=1;fontSize=13;fillColor=#dae8fc;strokeColor=#6c8ebf;" vertex="1" parent="1">
          <mxGeometry x="1296" y="497" width="92" height="20" as="geometry" />
        </mxCell>
        <mxCell id="67Q7puQWkrucqAfG7P_P-91" value="k2" style="rounded=0;whiteSpace=wrap;html=1;fontSize=13;" vertex="1" parent="1">
          <mxGeometry x="1215" y="555" width="32" height="20" as="geometry" />
        </mxCell>
        <mxCell id="67Q7puQWkrucqAfG7P_P-92" value="&lt;b style=&quot;font-size: 13px;&quot;&gt;[v2]&lt;/b&gt;" style="rounded=0;whiteSpace=wrap;html=1;fontSize=13;" vertex="1" parent="1">
          <mxGeometry x="1247" y="555" width="32" height="20" as="geometry" />
        </mxCell>
        <mxCell id="67Q7puQWkrucqAfG7P_P-93" value="[13:14, 13:44)" style="rounded=0;whiteSpace=wrap;html=1;fontSize=13;" vertex="1" parent="1">
          <mxGeometry x="1279" y="555" width="92" height="20" as="geometry" />
        </mxCell>
        <mxCell id="67Q7puQWkrucqAfG7P_P-94" value="&lt;b style=&quot;font-size: 13px;&quot;&gt;[v3]&lt;/b&gt;" style="rounded=0;whiteSpace=wrap;html=1;fontSize=13;" vertex="1" parent="1">
          <mxGeometry x="1250" y="517" width="46" height="20" as="geometry" />
        </mxCell>
        <mxCell id="67Q7puQWkrucqAfG7P_P-95" value="[13:57, 14:27)" style="rounded=0;whiteSpace=wrap;html=1;fontSize=13;" vertex="1" parent="1">
          <mxGeometry x="1296" y="517" width="92" height="20" as="geometry" />
        </mxCell>
        <mxCell id="67Q7puQWkrucqAfG7P_P-96" value="k1" style="rounded=0;whiteSpace=wrap;html=1;fontSize=13;" vertex="1" parent="1">
          <mxGeometry x="1215" y="492" width="30" height="52" as="geometry" />
        </mxCell>
        <mxCell id="67Q7puQWkrucqAfG7P_P-100" value="" style="endArrow=classic;html=1;rounded=0;fontSize=13;" edge="1" parent="1">
          <mxGeometry width="50" height="50" relative="1" as="geometry">
            <mxPoint x="1300.52" y="589" as="sourcePoint" />
            <mxPoint x="1300.52" y="628" as="targetPoint" />
          </mxGeometry>
        </mxCell>
        <mxCell id="67Q7puQWkrucqAfG7P_P-101" value="ExpandToElements" style="edgeLabel;html=1;align=center;verticalAlign=middle;resizable=0;points=[];fontSize=13;" vertex="1" connectable="0" parent="67Q7puQWkrucqAfG7P_P-100">
          <mxGeometry x="-0.0893" y="-3" relative="1" as="geometry">
            <mxPoint x="-61" as="offset" />
          </mxGeometry>
        </mxCell>
        <mxCell id="67Q7puQWkrucqAfG7P_P-102" value="" style="rounded=0;whiteSpace=wrap;html=1;fontSize=13;" vertex="1" parent="1">
          <mxGeometry x="1208" y="640" width="197" height="52" as="geometry" />
        </mxCell>
        <mxCell id="67Q7puQWkrucqAfG7P_P-103" value="&lt;span style=&quot;font-size: 13px;&quot;&gt;[v1,v4]&lt;/span&gt;" style="rounded=0;whiteSpace=wrap;html=1;fontSize=13;fontStyle=0" vertex="1" parent="1">
          <mxGeometry x="1221" y="645" width="46" height="20" as="geometry" />
        </mxCell>
        <mxCell id="67Q7puQWkrucqAfG7P_P-104" value="[13:02, 13:50)" style="rounded=0;whiteSpace=wrap;html=1;fontSize=13;" vertex="1" parent="1">
          <mxGeometry x="1304" y="645" width="92" height="20" as="geometry" />
        </mxCell>
        <mxCell id="67Q7puQWkrucqAfG7P_P-105" value="k2" style="rounded=0;whiteSpace=wrap;html=1;fontSize=13;" vertex="1" parent="1">
          <mxGeometry x="1179" y="702" width="32" height="20" as="geometry" />
        </mxCell>
        <mxCell id="67Q7puQWkrucqAfG7P_P-106" value="&lt;span style=&quot;font-size: 13px;&quot;&gt;[v2]&lt;/span&gt;" style="rounded=0;whiteSpace=wrap;html=1;fontSize=13;fontStyle=0" vertex="1" parent="1">
          <mxGeometry x="1211" y="702" width="32" height="20" as="geometry" />
        </mxCell>
        <mxCell id="67Q7puQWkrucqAfG7P_P-107" value="[13:14, 13:44)" style="rounded=0;whiteSpace=wrap;html=1;fontSize=13;" vertex="1" parent="1">
          <mxGeometry x="1280" y="702" width="92" height="20" as="geometry" />
        </mxCell>
        <mxCell id="67Q7puQWkrucqAfG7P_P-108" value="&lt;span style=&quot;font-size: 13px;&quot;&gt;[v3]&lt;/span&gt;" style="rounded=0;whiteSpace=wrap;html=1;fontSize=13;fontStyle=0" vertex="1" parent="1">
          <mxGeometry x="1221" y="665" width="46" height="20" as="geometry" />
        </mxCell>
        <mxCell id="67Q7puQWkrucqAfG7P_P-109" value="[13:57, 14:27)" style="rounded=0;whiteSpace=wrap;html=1;fontSize=13;" vertex="1" parent="1">
          <mxGeometry x="1304" y="665" width="92" height="20" as="geometry" />
        </mxCell>
        <mxCell id="67Q7puQWkrucqAfG7P_P-110" value="k1" style="rounded=0;whiteSpace=wrap;html=1;fontSize=13;" vertex="1" parent="1">
          <mxGeometry x="1179" y="640" width="32" height="52" as="geometry" />
        </mxCell>
        <mxCell id="67Q7puQWkrucqAfG7P_P-111" value="13:02" style="rounded=0;whiteSpace=wrap;html=1;fontSize=13;fillColor=#d5e8d4;strokeColor=#82b366;" vertex="1" parent="1">
          <mxGeometry x="1267" y="645" width="37" height="20" as="geometry" />
        </mxCell>
        <mxCell id="67Q7puQWkrucqAfG7P_P-112" value="13:57" style="rounded=0;whiteSpace=wrap;html=1;fontSize=13;fillColor=#d5e8d4;strokeColor=#82b366;" vertex="1" parent="1">
          <mxGeometry x="1267" y="665" width="37" height="20" as="geometry" />
        </mxCell>
        <mxCell id="67Q7puQWkrucqAfG7P_P-113" value="13:14" style="rounded=0;whiteSpace=wrap;html=1;fontSize=13;fillColor=#d5e8d4;strokeColor=#82b366;" vertex="1" parent="1">
          <mxGeometry x="1243" y="702" width="37" height="20" as="geometry" />
        </mxCell>
      </root>
    </mxGraphModel>
  </diagram>
  <diagram id="K6TBwPfrSbnTvk7zohGX" name="第 5 页">
    <mxGraphModel dx="-62" dy="616" grid="0" gridSize="10" guides="1" tooltips="1" connect="1" arrows="1" fold="1" page="1" pageScale="1" pageWidth="827" pageHeight="1169" math="0" shadow="0">
      <root>
        <mxCell id="0" />
        <mxCell id="1" parent="0" />
        <mxCell id="CKSTpqKi4f41bGxrHK6o-23" value="" style="rounded=1;whiteSpace=wrap;html=1;textOpacity=0;fillColor=#d5e8d4;strokeColor=none;fontSize=13;" parent="1" vertex="1">
          <mxGeometry x="945" y="642" width="342" height="92" as="geometry" />
        </mxCell>
        <mxCell id="CKSTpqKi4f41bGxrHK6o-46" value="" style="rounded=1;whiteSpace=wrap;html=1;textOpacity=0;fillColor=#dae8fc;strokeColor=default;dashed=1;fontSize=13;" parent="1" vertex="1">
          <mxGeometry x="1161" y="662" width="94" height="60" as="geometry" />
        </mxCell>
        <mxCell id="CKSTpqKi4f41bGxrHK6o-44" value="" style="rounded=1;whiteSpace=wrap;html=1;textOpacity=0;fillColor=#dae8fc;strokeColor=default;dashed=1;fontSize=13;" parent="1" vertex="1">
          <mxGeometry x="980" y="663" width="163" height="60" as="geometry" />
        </mxCell>
        <mxCell id="CKSTpqKi4f41bGxrHK6o-14" value="" style="rounded=1;whiteSpace=wrap;html=1;textOpacity=0;fillColor=#dae8fc;strokeColor=none;fontSize=13;" parent="1" vertex="1">
          <mxGeometry x="1160" y="510" width="94" height="60" as="geometry" />
        </mxCell>
        <mxCell id="CKSTpqKi4f41bGxrHK6o-13" value="" style="rounded=1;whiteSpace=wrap;html=1;textOpacity=0;fillColor=#dae8fc;strokeColor=none;fontSize=13;" parent="1" vertex="1">
          <mxGeometry x="978" y="512" width="161" height="60" as="geometry" />
        </mxCell>
        <mxCell id="CKSTpqKi4f41bGxrHK6o-1" value="" style="endArrow=classic;html=1;rounded=0;strokeWidth=2;fontSize=13;" parent="1" edge="1">
          <mxGeometry width="50" height="50" relative="1" as="geometry">
            <mxPoint x="961" y="551" as="sourcePoint" />
            <mxPoint x="1288" y="549" as="targetPoint" />
          </mxGeometry>
        </mxCell>
        <mxCell id="CKSTpqKi4f41bGxrHK6o-2" value="" style="shape=waypoint;sketch=0;fillStyle=solid;size=6;pointerEvents=1;points=[];fillColor=none;resizable=0;rotatable=0;perimeter=centerPerimeter;snapToPoint=1;fontSize=13;fontStyle=1;strokeWidth=4;" parent="1" vertex="1">
          <mxGeometry x="984" y="541" width="20" height="20" as="geometry" />
        </mxCell>
        <mxCell id="CKSTpqKi4f41bGxrHK6o-3" value="13:02" style="text;html=1;align=center;verticalAlign=middle;resizable=0;points=[];autosize=1;strokeColor=none;fillColor=none;fontSize=13;" parent="1" vertex="1">
          <mxGeometry x="969" y="519" width="51" height="28" as="geometry" />
        </mxCell>
        <mxCell id="CKSTpqKi4f41bGxrHK6o-4" value="" style="shape=waypoint;sketch=0;fillStyle=solid;size=6;pointerEvents=1;points=[];fillColor=none;resizable=0;rotatable=0;perimeter=centerPerimeter;snapToPoint=1;fontSize=13;fontStyle=1;strokeWidth=4;" parent="1" vertex="1">
          <mxGeometry x="1029" y="541" width="20" height="20" as="geometry" />
        </mxCell>
        <mxCell id="CKSTpqKi4f41bGxrHK6o-5" value="13:14" style="text;html=1;align=center;verticalAlign=middle;resizable=0;points=[];autosize=1;strokeColor=none;fillColor=none;fontSize=13;" parent="1" vertex="1">
          <mxGeometry x="1014" y="519" width="51" height="28" as="geometry" />
        </mxCell>
        <mxCell id="CKSTpqKi4f41bGxrHK6o-6" value="" style="shape=waypoint;sketch=0;fillStyle=solid;size=6;pointerEvents=1;points=[];fillColor=none;resizable=0;rotatable=0;perimeter=centerPerimeter;snapToPoint=1;fontSize=13;fontStyle=1;strokeWidth=4;" parent="1" vertex="1">
          <mxGeometry x="1107" y="541" width="20" height="20" as="geometry" />
        </mxCell>
        <mxCell id="CKSTpqKi4f41bGxrHK6o-7" value="13:44" style="text;html=1;align=center;verticalAlign=middle;resizable=0;points=[];autosize=1;strokeColor=none;fillColor=none;fontSize=13;" parent="1" vertex="1">
          <mxGeometry x="1092" y="519" width="51" height="28" as="geometry" />
        </mxCell>
        <mxCell id="CKSTpqKi4f41bGxrHK6o-8" value="" style="shape=waypoint;sketch=0;fillStyle=solid;size=6;pointerEvents=1;points=[];fillColor=none;resizable=0;rotatable=0;perimeter=centerPerimeter;snapToPoint=1;fontSize=13;fontStyle=1;strokeWidth=4;" parent="1" vertex="1">
          <mxGeometry x="1221" y="541" width="20" height="20" as="geometry" />
        </mxCell>
        <mxCell id="CKSTpqKi4f41bGxrHK6o-9" value="14:27" style="text;html=1;align=center;verticalAlign=middle;resizable=0;points=[];autosize=1;strokeColor=none;fillColor=none;fontSize=13;" parent="1" vertex="1">
          <mxGeometry x="1206" y="519" width="51" height="28" as="geometry" />
        </mxCell>
        <mxCell id="CKSTpqKi4f41bGxrHK6o-10" value="" style="shape=waypoint;sketch=0;fillStyle=solid;size=6;pointerEvents=1;points=[];fillColor=none;resizable=0;rotatable=0;perimeter=centerPerimeter;snapToPoint=1;fontSize=13;fontStyle=1;strokeWidth=4;" parent="1" vertex="1">
          <mxGeometry x="1166" y="541" width="20" height="20" as="geometry" />
        </mxCell>
        <mxCell id="CKSTpqKi4f41bGxrHK6o-11" value="13:57" style="text;html=1;align=center;verticalAlign=middle;resizable=0;points=[];autosize=1;strokeColor=none;fillColor=none;fontSize=13;" parent="1" vertex="1">
          <mxGeometry x="1152" y="519" width="51" height="28" as="geometry" />
        </mxCell>
        <mxCell id="CKSTpqKi4f41bGxrHK6o-20" value="session1" style="text;html=1;align=center;verticalAlign=middle;resizable=0;points=[];autosize=1;strokeColor=none;fillColor=none;fontSize=13;" parent="1" vertex="1">
          <mxGeometry x="1026" y="489" width="69" height="28" as="geometry" />
        </mxCell>
        <mxCell id="CKSTpqKi4f41bGxrHK6o-21" value="session2" style="text;html=1;align=center;verticalAlign=middle;resizable=0;points=[];autosize=1;strokeColor=none;fillColor=none;fontSize=13;" parent="1" vertex="1">
          <mxGeometry x="1171" y="489" width="69" height="28" as="geometry" />
        </mxCell>
        <mxCell id="CKSTpqKi4f41bGxrHK6o-24" value="" style="endArrow=classic;html=1;rounded=0;strokeWidth=2;fontSize=13;" parent="1" edge="1">
          <mxGeometry width="50" height="50" relative="1" as="geometry">
            <mxPoint x="923" y="702" as="sourcePoint" />
            <mxPoint x="1322" y="700" as="targetPoint" />
          </mxGeometry>
        </mxCell>
        <mxCell id="CKSTpqKi4f41bGxrHK6o-25" value="" style="shape=waypoint;sketch=0;fillStyle=solid;size=6;pointerEvents=1;points=[];fillColor=none;resizable=0;rotatable=0;perimeter=centerPerimeter;snapToPoint=1;fontSize=13;fontStyle=1;strokeWidth=4;" parent="1" vertex="1">
          <mxGeometry x="986" y="692" width="20" height="20" as="geometry" />
        </mxCell>
        <mxCell id="CKSTpqKi4f41bGxrHK6o-26" value="13:02" style="text;html=1;align=center;verticalAlign=middle;resizable=0;points=[];autosize=1;strokeColor=none;fillColor=none;fontSize=13;" parent="1" vertex="1">
          <mxGeometry x="971" y="670" width="51" height="28" as="geometry" />
        </mxCell>
        <mxCell id="CKSTpqKi4f41bGxrHK6o-27" value="" style="shape=waypoint;sketch=0;fillStyle=solid;size=6;pointerEvents=1;points=[];fillColor=none;resizable=0;rotatable=0;perimeter=centerPerimeter;snapToPoint=1;fontSize=13;fontStyle=1;strokeWidth=4;" parent="1" vertex="1">
          <mxGeometry x="1031" y="692" width="20" height="20" as="geometry" />
        </mxCell>
        <mxCell id="CKSTpqKi4f41bGxrHK6o-28" value="13:14" style="text;html=1;align=center;verticalAlign=middle;resizable=0;points=[];autosize=1;strokeColor=none;fillColor=none;fontSize=13;" parent="1" vertex="1">
          <mxGeometry x="1016" y="670" width="51" height="28" as="geometry" />
        </mxCell>
        <mxCell id="CKSTpqKi4f41bGxrHK6o-29" value="" style="shape=waypoint;sketch=0;fillStyle=solid;size=6;pointerEvents=1;points=[];fillColor=none;resizable=0;rotatable=0;perimeter=centerPerimeter;snapToPoint=1;fontSize=13;fontStyle=1;strokeWidth=4;" parent="1" vertex="1">
          <mxGeometry x="1109" y="692" width="20" height="20" as="geometry" />
        </mxCell>
        <mxCell id="CKSTpqKi4f41bGxrHK6o-30" value="13:44" style="text;html=1;align=center;verticalAlign=middle;resizable=0;points=[];autosize=1;strokeColor=none;fillColor=none;fontSize=13;" parent="1" vertex="1">
          <mxGeometry x="1094" y="670" width="51" height="28" as="geometry" />
        </mxCell>
        <mxCell id="CKSTpqKi4f41bGxrHK6o-31" value="" style="shape=waypoint;sketch=0;fillStyle=solid;size=6;pointerEvents=1;points=[];fillColor=none;resizable=0;rotatable=0;perimeter=centerPerimeter;snapToPoint=1;fontSize=13;fontStyle=1;strokeWidth=4;" parent="1" vertex="1">
          <mxGeometry x="1223" y="692" width="20" height="20" as="geometry" />
        </mxCell>
        <mxCell id="CKSTpqKi4f41bGxrHK6o-32" value="14:27" style="text;html=1;align=center;verticalAlign=middle;resizable=0;points=[];autosize=1;strokeColor=none;fillColor=none;fontSize=13;" parent="1" vertex="1">
          <mxGeometry x="1208" y="670" width="51" height="28" as="geometry" />
        </mxCell>
        <mxCell id="CKSTpqKi4f41bGxrHK6o-33" value="" style="shape=waypoint;sketch=0;fillStyle=solid;size=6;pointerEvents=1;points=[];fillColor=none;resizable=0;rotatable=0;perimeter=centerPerimeter;snapToPoint=1;fontSize=13;fontStyle=1;strokeWidth=4;" parent="1" vertex="1">
          <mxGeometry x="1168" y="692" width="20" height="20" as="geometry" />
        </mxCell>
        <mxCell id="CKSTpqKi4f41bGxrHK6o-34" value="13:57" style="text;html=1;align=center;verticalAlign=middle;resizable=0;points=[];autosize=1;strokeColor=none;fillColor=none;fontSize=13;" parent="1" vertex="1">
          <mxGeometry x="1154" y="670" width="51" height="28" as="geometry" />
        </mxCell>
        <mxCell id="CKSTpqKi4f41bGxrHK6o-37" value="" style="shape=waypoint;sketch=0;fillStyle=solid;size=6;pointerEvents=1;points=[];fillColor=#f8cecc;resizable=0;rotatable=0;perimeter=centerPerimeter;snapToPoint=1;fontSize=13;fontStyle=1;strokeWidth=4;strokeColor=#b85450;fontColor=#CC0000;" parent="1" vertex="1">
          <mxGeometry x="1084" y="692" width="20" height="20" as="geometry" />
        </mxCell>
        <mxCell id="CKSTpqKi4f41bGxrHK6o-39" value="13:40" style="text;html=1;align=center;verticalAlign=middle;resizable=0;points=[];autosize=1;strokeColor=none;fillColor=none;fontStyle=1;fontSize=13;" parent="1" vertex="1">
          <mxGeometry x="1069" y="735" width="51" height="28" as="geometry" />
        </mxCell>
        <mxCell id="CKSTpqKi4f41bGxrHK6o-40" value="" style="endArrow=classic;html=1;rounded=0;fillColor=#f8cecc;strokeColor=#b85450;fontSize=13;strokeWidth=2;" parent="1" edge="1">
          <mxGeometry width="50" height="50" relative="1" as="geometry">
            <mxPoint x="1093" y="734" as="sourcePoint" />
            <mxPoint x="1093" y="712" as="targetPoint" />
          </mxGeometry>
        </mxCell>
        <mxCell id="CKSTpqKi4f41bGxrHK6o-41" value="session3" style="text;html=1;align=center;verticalAlign=middle;resizable=0;points=[];autosize=1;strokeColor=none;fillColor=none;fontSize=13;" parent="1" vertex="1">
          <mxGeometry x="1086" y="617" width="69" height="28" as="geometry" />
        </mxCell>
        <mxCell id="CKSTpqKi4f41bGxrHK6o-43" value="" style="endArrow=classic;html=1;rounded=0;strokeWidth=2;fillColor=#f5f5f5;strokeColor=default;fontSize=13;" parent="1" edge="1">
          <mxGeometry width="50" height="50" relative="1" as="geometry">
            <mxPoint x="1117" y="585" as="sourcePoint" />
            <mxPoint x="1117" y="618" as="targetPoint" />
          </mxGeometry>
        </mxCell>
        <mxCell id="CKSTpqKi4f41bGxrHK6o-45" value="session1 &lt;b style=&quot;font-size: 13px;&quot;&gt;&lt;font color=&quot;#cc0000&quot;&gt;xx&lt;/font&gt;&lt;/b&gt;" style="text;html=1;align=center;verticalAlign=middle;resizable=0;points=[];autosize=1;strokeColor=none;fillColor=none;fontSize=13;" parent="1" vertex="1">
          <mxGeometry x="1013.5" y="640" width="87" height="28" as="geometry" />
        </mxCell>
        <mxCell id="CKSTpqKi4f41bGxrHK6o-47" value="session2 &lt;b style=&quot;font-size: 13px;&quot;&gt;&lt;font color=&quot;#cc0000&quot;&gt;xx&lt;/font&gt;&lt;/b&gt;" style="text;html=1;align=center;verticalAlign=middle;resizable=0;points=[];autosize=1;strokeColor=none;fillColor=none;fontSize=13;" parent="1" vertex="1">
          <mxGeometry x="1163" y="640" width="87" height="28" as="geometry" />
        </mxCell>
      </root>
    </mxGraphModel>
  </diagram>
</mxfile>
